<mxfile host="65bd71144e">
    <diagram id="IfHdpkt5FfNbNsMXHIhH" name="vendedores">
        <mxGraphModel dx="1182" dy="477" grid="1" gridSize="10" guides="1" tooltips="1" connect="1" arrows="1" fold="1" page="1" pageScale="1" pageWidth="850" pageHeight="1100" math="0" shadow="0">
            <root>
                <mxCell id="0"/>
                <mxCell id="1" parent="0"/>
                <mxCell id="2" value="&lt;div style=&quot;font-size: 14px&quot;&gt;&lt;font face=&quot;Courier New&quot; style=&quot;font-size: 14px&quot; color=&quot;#b3b3b3&quot;&gt;&lt;b&gt;{&lt;br&gt;&lt;/b&gt;&lt;/font&gt;&lt;/div&gt;&lt;div style=&quot;font-size: 14px&quot;&gt;&lt;font face=&quot;Courier New&quot; style=&quot;font-size: 14px&quot; color=&quot;#b3b3b3&quot;&gt;&lt;b&gt;&amp;nbsp; &amp;nbsp; _id: &amp;lt;ObjectId&amp;gt;,&lt;/b&gt;&lt;/font&gt;&lt;/div&gt;&lt;div style=&quot;font-size: 14px&quot;&gt;&lt;font face=&quot;Courier New&quot; style=&quot;font-size: 14px&quot; color=&quot;#b3b3b3&quot;&gt;&lt;b&gt;&amp;nbsp; &amp;nbsp; nombres: &quot;Sofia GutiÃ©rrez&quot;,&lt;/b&gt;&lt;/font&gt;&lt;/div&gt;&lt;div style=&quot;font-size: 14px&quot;&gt;&lt;font face=&quot;Courier New&quot; style=&quot;font-size: 14px&quot; color=&quot;#b3b3b3&quot;&gt;&lt;b&gt;&amp;nbsp; &amp;nbsp; especialidad: &quot;?&quot;,&lt;/b&gt;&lt;/font&gt;&lt;/div&gt;&lt;div style=&quot;font-size: 14px&quot;&gt;&lt;font face=&quot;Courier New&quot; style=&quot;font-size: 14px&quot; color=&quot;#b3b3b3&quot;&gt;&lt;b&gt;&amp;nbsp; &amp;nbsp; celular: &quot;3153211155&quot;,&lt;/b&gt;&lt;/font&gt;&lt;/div&gt;&lt;div style=&quot;font-size: 14px&quot;&gt;&lt;font face=&quot;Courier New&quot; style=&quot;font-size: 14px&quot; color=&quot;#b3b3b3&quot;&gt;&lt;b&gt;&amp;nbsp; &amp;nbsp; fecha_ultimo_ingreso: &quot;2021-09-22&quot;&lt;/b&gt;&lt;/font&gt;&lt;/div&gt;&lt;div style=&quot;font-size: 14px&quot;&gt;&lt;font face=&quot;Courier New&quot; style=&quot;font-size: 14px&quot; color=&quot;#b3b3b3&quot;&gt;&lt;b&gt;}&lt;/b&gt;&lt;/font&gt;&lt;/div&gt;" style="rounded=1;whiteSpace=wrap;html=1;align=left;arcSize=5;shadow=0;sketch=0;glass=0;strokeColor=#FFFF66;" vertex="1" parent="1">
                    <mxGeometry x="60" y="200" width="340" height="130" as="geometry"/>
                </mxCell>
                <mxCell id="3" value="&lt;span style=&quot;text-align: left ; font-size: 14px&quot;&gt;document vendedor&lt;/span&gt;" style="text;html=1;strokeColor=none;fillColor=none;align=center;verticalAlign=middle;whiteSpace=wrap;rounded=0;fontFamily=Tahoma;fontStyle=0;fontSize=14;fontColor=#FFFF66;" vertex="1" parent="1">
                    <mxGeometry x="50" y="170" width="160" height="20" as="geometry"/>
                </mxCell>
                <mxCell id="4" value="&lt;h1&gt;&lt;font color=&quot;#ffffff&quot;&gt;ODM&lt;/font&gt;&lt;/h1&gt;&lt;p&gt;&lt;font color=&quot;#ffffff&quot;&gt;Modelo general de la entidad&amp;nbsp; vendedor&lt;/font&gt;&lt;/p&gt;" style="text;html=1;strokeColor=none;fillColor=none;spacing=5;spacingTop=-20;whiteSpace=wrap;overflow=hidden;rounded=0;shadow=0;glass=0;sketch=0;fontFamily=Tahoma;fontSize=14;fontColor=#FFFF66;" vertex="1" parent="1">
                    <mxGeometry x="40" y="30" width="310" height="120" as="geometry"/>
                </mxCell>
            </root>
        </mxGraphModel>
    </diagram>
</mxfile>